<?xml version="1.0" encoding="utf-8"?>
<!-- Generator: Adobe Illustrator 21.0.0, SVG Export Plug-In . SVG Version: 6.00 Build 0)  -->
<svg version="1.1" id="Layer_1" xmlns="http://www.w3.org/2000/svg" xmlns:xlink="http://www.w3.org/1999/xlink" x="0px" y="0px"
	 viewBox="0 0 1477.7 193" style="enable-background:new 0 0 1477.7 193;" xml:space="preserve">
<style type="text/css">
	.st0{fill:none;}
	.st1{fill:url(#SVGID_1_);}
	.st2{fill:url(#SVGID_2_);}
	.st3{fill:url(#SVGID_3_);}
	.st4{fill:url(#SVGID_4_);}
	.st5{fill:url(#SVGID_5_);}
	.st6{fill:#C1973A;}
	.st7{fill-rule:evenodd;clip-rule:evenodd;fill:#C1973A;}
	.st8{fill:url(#SVGID_6_);}
</style>
<g>
	<path class="st6" d="M1236.5,89.8h-0.6c-7.1,3.8-14.3,7.6-21.6,11.2v2.2l0-2C1214.4,101.2,1222.7,97.6,1236.5,89.8z"/>
	<g>
		<path class="st7" d="M112.4,27.5c-0.8-7-6.6-8.5-9.3-9.2c4.4-1.4,10.9,1,13.6,5c4.4,6.7,3.2,17.9-6.3,24.5
			c2.3-0.8,6.2-3.7,7.2-5.4c0.4,3.3,0.2,5.7-0.6,9c6.4,3.7,12.7,9.3,18.8,9.8c3.3,0.2,7.2-1.6,9.2-4.3c-1.3,5.6-3.7,10.4-9.7,12.3
			c2.6,2.9,8.3,12,6.4,18.8c-0.1-0.3-0.3-0.7-0.5-1.2c-1.6-2.4-4.9-5.3-8-7.8c0.8,8.9-2.2,17.4-7.5,24.4c15.2-9.7,29.8-27,23.3-54.5
			C139.6,8.7,78.6,4,46.7,13.8c1.6-1,3.2-1.9,4.9-2.7c2.4-1.3,4.9-2.4,7.4-3.5C69.8,3,81.7,0.3,94.2,0v0l2.2,0l2.2,0v0
			C117,0.4,134.1,6,148.5,15.3c2.9,1.9,5.7,3.9,8.4,6.1c2.7,2.2,5.3,4.5,7.7,6.9l0,0c4.9,4.9,9.3,10.3,13.1,16.2
			c1.5,2.3,2.8,4.6,4.1,7c1.3,2.4,2.4,4.9,3.5,7.4c4.6,10.9,7.3,22.8,7.6,35.3h0v2.2v0v2.2h0c-0.4,18.3-5.9,35.4-15.2,49.8
			c-1.9,2.9-3.9,5.7-6.1,8.4c-2.2,2.7-4.5,5.3-6.9,7.7l0,0c-9.7,9.7-21.6,17.4-34.7,22.3c-2.5,0.9-5.1,1.8-7.8,2.5
			c-7.5,2.1-15.3,3.2-23.4,3.4v0h-2.2h0h0h-2.2v0c-18.3-0.4-35.4-6-49.8-15.2c-2.9-1.9-5.7-3.9-8.4-6.1c-2.7-2.2-5.3-4.5-7.7-6.9
			l0,0c-4.9-4.9-9.3-10.3-13.1-16.2c-1.5-2.3-2.8-4.6-4.1-7c-1.3-2.4-2.4-4.9-3.5-7.4C3,123.1,0.3,111.2,0,98.7h0l0-2.2l0-2.2h0
			C0.4,75.9,6,58.8,15.3,44.4c1.9-2.9,3.9-5.7,6.1-8.4c2.1-2.5,4.2-5,6.5-7.3c-9,17-12.4,31.3-13,42.6c-1,16.6,3.3,35.9,23.9,48.2
			c7.6-9.7,19.3-15.3,31.2-17.6c-2.8-1.9-8.2-7.3-9.3-11.8l4,2.6c18.1,10.4,40.5,3.5,40.8-8.1c-4.9,4.5-11.1,5.7-17.4,5
			c0.7-0.5,4.2-3,4.8-3.5c11.2-9.1-2.9-17.4-15.5-16.3c-12.3,1.2-14.9,5-17,9.8c-3-8.1,0.3-15.7,7.4-19.2
			c-0.8-6.4,4.5-11.9,11.4-13.7c0.9-0.2,2.1-0.5,3.3-0.8c0.7-0.1,1.6-0.3,2.6-0.4C93.7,43.6,111.9,43.3,112.4,27.5L112.4,27.5z
			 M76.1,60.6c0,0,6.1,0.5,7.6-4.7C77.8,56.7,76.1,60.6,76.1,60.6L76.1,60.6z M96.1,127.9c0.1,0.2,0.2,0.4,0.2,0.6
			c3.4,8.3,17.9,36.6,55.7,36.6c1.9,0,3.9-0.1,6-0.2c1.2-1.1,2.3-2.2,3.5-3.3l0,0c2.4-2.4,4.6-4.8,6.6-7.4c2.1-2.6,4-5.3,5.8-8
			c5-7.7,8.8-16.3,11.3-25.3l0,0c-12.7,12.4-37.5,26.4-78.4,11.5C103.4,131,99.8,129.6,96.1,127.9L96.1,127.9z M152.5,169.5
			c-43.5,0.3-58.4-34.4-60.8-40.8c-8.8,9.8-19.2,30.3,16.8,54.6c0.6,0.4,1.1,0.8,1.6,1.2l0.1,0c0,0,1.3,0.9,3.4,2.5
			c2.5-0.5,4.9-1,7.3-1.7c2.5-0.7,5-1.5,7.5-2.4C137.1,179.6,145.2,175,152.5,169.5L152.5,169.5z M94.9,122
			c-0.2,0.1-0.3,0.1-0.3,0.1c-1.5,0.4-3,0.5-4.6,0.6c-13.1,9.4-18.7,22.8-16.9,36.6l0,0c0.9,6.2,4.1,16.7,14.5,28.7l0,0
			c2.4,0.2,4.9,0.4,7.4,0.4h1.5h0h0h2c2.7-0.1,5.4-0.2,8-0.5l-0.2-0.1c-37-26.3-25.5-49.7-16.9-60l0,0c0.2-0.2,0.4-0.5,0.7-0.8
			c1.4-1.6,2.6-2.8,3.5-3.7C94.3,122.6,94.8,122.1,94.9,122L94.9,122z M44.2,131.1L44.2,131.1l0.2,0c0.7-1.3,1.5-2.5,2.4-3.8
			c-8.7,4.3-11.6,9.7-16.1,17.6c2.4,0.8,5,1.5,7.8,1.8c1-5.2,2.9-10.3,5.6-15.1L44.2,131.1L44.2,131.1z M43.6,171.8L43.6,171.8
			c1,0.7,2.1,1.5,3.2,2.1c10,6.4,21.3,10.9,33.4,13.1c-1-1.5-2.1-3-3.2-4.6c-20.7-29.8,2.8-55.9,7.1-59
			C55.9,127.4,36,139.6,43.6,171.8L43.6,171.8z M79.9,5.8L79.9,5.8c79.2-4,106,79.3,33.9,108.5c20.7-0.5,63.9-7.8,64.7-59.6
			c-0.2-0.4-0.4-0.8-0.6-1.1c-1.2-2.3-2.5-4.5-3.9-6.7c-3.6-5.6-7.8-10.8-12.5-15.5l0,0c-2.4-2.4-4.8-4.6-7.4-6.6
			c-2.6-2.1-5.3-4-8-5.8C132.3,10.1,116,4.8,98.4,4.5h-1.9h0h0h-2C89.6,4.6,84.6,5,79.9,5.8L79.9,5.8z M182.1,62.7L182.1,62.7
			c-5.6,56.4-63.1,56.4-76.6,55.6c-3.3,1.3-6,3.3-8.6,5.5c52,24.2,79.5,2.2,90.2-10.8c0.9-4.7,1.4-9.6,1.5-14.6v-1.9v0v0v-2
			C188.2,83.3,186,72.6,182.1,62.7L182.1,62.7z M39.7,168.9L39.7,168.9c-1.8-6.2-2.4-12.3-1.8-18.2c-8.7-1.2-15.9-4.7-21.8-9.3
			c0.9,1.6,1.8,3.2,2.8,4.7c3.6,5.6,7.8,10.8,12.5,15.5l0,0c2.4,2.4,4.8,4.6,7.4,6.6C39.1,168.4,39.4,168.6,39.7,168.9L39.7,168.9z
			 M11.1,130.9L11.1,130.9c4.9,5.9,11.4,11.1,19.6,14c-0.4-2.8,0.4-8.1,0.7-9.7c1-4.6,2.8-8.7,5-12.3c-27.6-16.7-27.9-44.7-24-64
			c-4.9,10.9-7.7,23-8,35.7l0,1.9v0v0l0,2C4.7,109.9,7,120.8,11.1,130.9L11.1,130.9z M39.1,123.5L39.1,123.5l-0.4,0.6c0,0,0,0,0,0
			c-1.9,2.9-3.3,6.2-4.3,9.9c18.3-24.2,45.9-13,70.4-20.5l0,0c0,0,2.2-0.7,5.6-2c6.8-2.9,12.2-6.8,15.9-13.4
			c8.1-14.2-3.3-24.7-15.3-28.4c2.1,3.7,2.6,9.4-3.1,16.1c-0.5,4-3.2,7.5-7,10.1c-8.6,5.9-22.2,5.7-32.5,1.5
			c5.4,4.9,21.2,11.2,31.3,11.5c-4.5,1-13.4,1.1-25.9-5C60.5,105.8,46.8,112,39.1,123.5L39.1,123.5z M108.9,41.2L108.9,41.2
			c-8,6-19.7,5.6-29.1,8c-6,1.6-10.7,6.6-9.3,11.6c0.2,0.9,3,0.3,3.8,0.1c5.1-12.2,34.8-5.2,41.5-23.8c1.6-4.4,1.3-9.4-1.6-12.9
			c1.4,3.1,1.1,6.9-0.2,10.1C112.9,36.9,111.2,39.6,108.9,41.2L108.9,41.2z M96,86.7L96,86.7c12.7-3.3,13.7-15.9,9.7-18.9
			c-4.9,1.2-10.5,1.5-14.9,1.6c-0.3-0.1-0.7-0.3-1-0.4C98.4,72.4,103,79.5,96,86.7L96,86.7z M61.7,73.1L61.7,73.1
			c10.5-12.9,49.1,3,53.3-24.5c-3.1,2.2-7.7,2.9-11.7,3.3L86.2,56c-1,6.6-13.2,8.7-18.7,7.5C64.4,65.5,61.8,69,61.7,73.1L61.7,73.1z
			 M116.4,54L116.4,54c-1.7,4.8-4.7,8.3-8.9,10.7c11.2,1.7,24.7,8.5,32.1,16.9c-2.2-6.5-5.4-10.1-9.6-14c4-0.5,6.7-0.7,9.6-4.2
			C131.2,65.6,123.6,58.3,116.4,54z"/>
	</g>
	<path class="st6" d="M313.5,12.9l57,146.7c2.2,5.8,4.7,9.7,7.6,11.7c2.9,2,5.6,3.1,8.1,3.3v4.7c-3.7-0.3-8.1-0.5-13.2-0.6
		c-5.1-0.1-10.2-0.1-15.3-0.1c-6.5,0-12.6,0-18.2,0.1c-5.6,0.1-10.1,0.3-13.5,0.6v-4.7c7.9-0.3,13-1.7,15.1-4.1
		c2.1-2.4,1.6-7.6-1.5-15.5l-42-113.5l3.7-4.2l-38.8,101.4c-3.7,9.3-5.5,16.6-5.4,21.7c0.2,5.1,2,8.8,5.5,10.9
		c3.5,2.1,8.5,3.2,15.1,3.4v4.7c-4.7-0.3-9.4-0.5-14.1-0.6c-4.8-0.1-9.2-0.1-13.4-0.1c-3.7,0-7,0-9.9,0.1s-5.5,0.3-7.8,0.6v-4.7
		c3.3-0.8,6.5-2.7,9.8-5.8c3.3-3.1,6.4-8.4,9.3-15.9l54.2-139.9c1.2,0,2.6,0,4,0C310.9,12.9,312.3,12.9,313.5,12.9z M338,111.9v4.7
		h-69.6l2.3-4.7H338z"/>
	<path class="st6" d="M553.4,13.8v4.7c-5.3,0.3-9.3,1.2-11.9,2.8c-2.6,1.6-4.4,4.1-5.3,7.6c-0.9,3.5-1.3,8.4-1.3,14.8v136.4
		c-1.2,0-2.5,0-3.7,0s-2.6,0-4,0l-99-143.9v112.1c0,6.5,0.5,11.6,1.4,15.3c0.9,3.7,3,6.3,6.1,7.8c3.1,1.6,7.9,2.6,14.2,3v4.7
		c-3-0.3-6.7-0.5-11.3-0.6c-4.6-0.1-8.9-0.1-13-0.1c-3.9,0-7.8,0-11.7,0.1c-3.9,0.1-7.1,0.3-9.6,0.6v-4.7c5.1-0.5,9-1.4,11.7-2.9
		c2.6-1.5,4.4-4,5.4-7.6c0.9-3.6,1.4-8.5,1.4-14.7V38.6c0-5.8-0.5-10-1.4-12.7c-0.9-2.7-2.7-4.6-5.4-5.6c-2.6-1-6.5-1.6-11.7-1.8
		v-4.7c2.5,0.2,5.7,0.3,9.6,0.5c3.9,0.2,7.8,0.2,11.7,0.2c3.4,0,6.8-0.1,10-0.2c3.3-0.2,6.2-0.3,8.6-0.5l85.2,121.9V44.6
		c0-6.7-0.5-11.8-1.5-15.4c-1-3.6-3.1-6.2-6.2-7.8c-3.1-1.6-7.8-2.6-14-2.9v-4.7c2.8,0.2,6.5,0.3,11.2,0.5c4.7,0.2,9,0.2,13.1,0.2
		c3.9,0,7.8-0.1,11.7-0.2C547.7,14.1,550.9,14,553.4,13.8z"/>
	<path class="st6" d="M664.7,13.8c28.8,0,50.2,7,64.2,20.9c14,13.9,21,33.9,21,59.9c0,17-3.4,31.8-10.3,44.5
		c-6.9,12.7-16.8,22.5-29.8,29.5c-13,7-28.8,10.5-47.3,10.5c-3.4,0-8.5-0.1-15.3-0.4c-6.8-0.2-12.7-0.4-17.9-0.4
		c-5.9,0-11.7,0-17.4,0.1c-5.7,0.1-10.3,0.3-13.9,0.6v-4.7c5.3-0.3,9.3-0.9,11.9-1.9c2.6-0.9,4.4-2.8,5.3-5.6
		c0.9-2.8,1.3-7,1.3-12.6V38.6c0-5.8-0.4-10-1.3-12.7c-0.9-2.7-2.6-4.6-5.4-5.6c-2.7-1-6.7-1.6-11.8-1.8v-4.7
		c3.6,0.2,8.2,0.3,13.9,0.6c5.7,0.2,11.3,0.3,16.9,0.1c5.6-0.2,11.9-0.3,18.8-0.5C654.7,13.9,660.4,13.8,664.7,13.8z M660.8,18
		c-7.2,0-11.8,1.3-14,4c-2.2,2.6-3.3,8-3.3,16.1v116.8c0,8.1,1.1,13.5,3.4,16.1c2.3,2.6,7,4,14.1,4c15.7,0,27.9-3.1,36.7-9.2
		c8.7-6.2,14.9-15.1,18.5-27c3.6-11.8,5.4-26.2,5.4-43.2c0-26.2-4.5-45.6-13.5-58.4C698.9,24.4,683.2,18,660.8,18z"/>
	<path class="st6" d="M866,10.5c15.3,0,28.7,3.3,40.3,10c11.6,6.7,20.6,16.3,27,28.8c6.4,12.5,9.6,27.8,9.6,45.7
		c0,17.4-3.3,32.7-9.8,45.8c-6.5,13.1-15.6,23.3-27.3,30.6c-11.7,7.3-25,11-39.9,11c-15.4,0-28.9-3.3-40.4-10
		c-11.5-6.7-20.5-16.3-26.9-29c-6.4-12.6-9.6-27.8-9.6-45.5c0-17.4,3.3-32.7,9.9-45.8c6.6-13.1,15.7-23.3,27.2-30.6
		C837.6,14.2,850.9,10.5,866,10.5z M865.1,14.7c-9.7,0-18.1,3.5-25.2,10.5s-12.7,16.7-16.6,29c-3.9,12.3-5.8,26.5-5.8,42.7
		c0,16.5,2.2,30.9,6.5,43.1c4.4,12.2,10.3,21.6,17.8,28.3c7.5,6.6,15.8,9.9,25,9.9c9.7,0,18-3.5,25.1-10.5
		c7.1-7,12.6-16.7,16.6-29.1c4-12.4,6-26.6,6-42.6c0-16.7-2.2-31.1-6.7-43.2c-4.4-12.1-10.4-21.5-17.8-28.1
		C882.6,18,874.3,14.7,865.1,14.7z"/>
	<path class="st6" d="M1044,12.9l57,146.7c2.2,5.8,4.7,9.7,7.6,11.7c2.9,2,5.6,3.1,8.1,3.3v4.7c-3.7-0.3-8.1-0.5-13.2-0.6
		c-5.1-0.1-10.2-0.1-15.3-0.1c-6.5,0-12.6,0-18.2,0.1c-5.6,0.1-10.1,0.3-13.5,0.6v-4.7c7.9-0.3,13-1.7,15.1-4.1
		c2.1-2.4,1.6-7.6-1.5-15.5l-42-113.5l3.7-4.2l-38.8,101.4c-3.7,9.3-5.5,16.6-5.4,21.7c0.2,5.1,2,8.8,5.5,10.9
		c3.5,2.1,8.5,3.2,15.1,3.4v4.7c-4.7-0.3-9.4-0.5-14.1-0.6c-4.8-0.1-9.2-0.1-13.4-0.1c-3.7,0-7,0-9.9,0.1s-5.5,0.3-7.8,0.6v-4.7
		c3.3-0.8,6.5-2.7,9.8-5.8c3.3-3.1,6.4-8.4,9.3-15.9l54.2-139.9c1.2,0,2.6,0,4,0C1041.4,12.9,1042.8,12.9,1044,12.9z M1068.5,111.9
		v4.7h-69.6l2.3-4.7H1068.5z"/>
	<path class="st6" d="M1283.9,13.8v4.7c-5.3,0.3-9.3,1.2-11.9,2.8c-2.6,1.6-4.4,4.1-5.3,7.6c-0.9,3.5-1.3,8.4-1.3,14.8v136.4
		c-1.2,0-2.5,0-3.7,0s-2.6,0-4,0l-99-143.9v112.1c0,6.5,0.5,11.6,1.4,15.3c0.9,3.7,3,6.3,6.1,7.8c3.1,1.6,7.9,2.6,14.2,3v4.7
		c-3-0.3-6.7-0.5-11.3-0.6c-4.6-0.1-8.9-0.1-13-0.1c-3.9,0-7.8,0-11.7,0.1c-3.9,0.1-7.1,0.3-9.6,0.6v-4.7c5.1-0.5,9-1.4,11.7-2.9
		c2.6-1.5,4.4-4,5.4-7.6c0.9-3.6,1.4-8.5,1.4-14.7V38.6c0-5.8-0.5-10-1.4-12.7c-0.9-2.7-2.7-4.6-5.4-5.6c-2.6-1-6.5-1.6-11.7-1.8
		v-4.7c2.5,0.2,5.7,0.3,9.6,0.5c3.9,0.2,7.8,0.2,11.7,0.2c3.4,0,6.8-0.1,10-0.2c3.3-0.2,6.2-0.3,8.6-0.5l85.2,121.9V44.6
		c0-6.7-0.5-11.8-1.5-15.4c-1-3.6-3.1-6.2-6.2-7.8c-3.1-1.6-7.8-2.6-14-2.9v-4.7c2.8,0.2,6.5,0.3,11.2,0.5c4.7,0.2,9,0.2,13.1,0.2
		c3.9,0,7.8-0.1,11.7-0.2C1278.2,14.1,1281.4,14,1283.9,13.8z"/>
	<path class="st6" d="M1315.8,179.1v-4.7c5.3-0.3,9.3-0.9,11.9-1.9c2.6-0.9,4.4-2.8,5.3-5.6c0.9-2.8,1.3-7,1.3-12.6V38.6
		c0-5.8-0.4-10-1.3-12.7c-0.9-2.7-2.6-4.6-5.4-5.6c-2.7-1-6.7-1.6-11.8-1.8v-4.7c3.6,0.2,8.2,0.3,13.9,0.5
		c5.7,0.2,11.8,0.2,18.3,0.2c5.9,0,11.7-0.1,17.4-0.2c5.7-0.2,10.4-0.3,14.1-0.5v4.7c-5.1,0.2-9,0.7-11.7,1.8
		c-2.6,1-4.4,2.9-5.4,5.6c-0.9,2.7-1.4,7-1.4,12.7v115.8c0,5.6,0.5,9.8,1.4,12.6c0.9,2.8,2.7,4.7,5.4,5.6c2.6,0.9,6.5,1.6,11.7,1.9
		v4.7c-3.7-0.3-8.4-0.5-14.1-0.6c-5.7-0.1-11.5-0.1-17.4-0.1c-6.5,0-12.7,0-18.3,0.1C1324.1,178.6,1319.4,178.8,1315.8,179.1z
		 M1350.6,98.3v-4.7h92.2v4.7H1350.6z M1413.9,179.1v-4.7c5.3-0.3,9.3-0.9,11.9-1.9c2.6-0.9,4.4-2.8,5.3-5.6c0.9-2.8,1.3-7,1.3-12.6
		V38.6c0-5.8-0.4-10-1.3-12.7c-0.9-2.7-2.6-4.6-5.4-5.6c-2.7-1-6.7-1.6-11.8-1.8v-4.7c3.9,0.2,8.8,0.3,14.6,0.5s11.6,0.2,17.4,0.2
		c6.5,0,12.6-0.1,18.2-0.2c5.6-0.2,10.1-0.3,13.5-0.5v4.7c-5.1,0.2-9,0.7-11.7,1.8c-2.6,1-4.4,2.9-5.4,5.6c-0.9,2.7-1.4,7-1.4,12.7
		v115.8c0,5.6,0.5,9.8,1.4,12.6s2.7,4.7,5.4,5.6c2.6,0.9,6.5,1.6,11.7,1.9v4.7c-3.4-0.3-7.9-0.5-13.5-0.6
		c-5.6-0.1-11.7-0.1-18.2-0.1c-5.8,0-11.6,0-17.4,0.1S1417.8,178.8,1413.9,179.1z"/>
</g>
</svg>
